<svg id="Layer_4" data-name="Layer 4" xmlns="http://www.w3.org/2000/svg" viewBox="0 0 343 173.43"><defs><style>.cls-1{fill:#4a58b0;}</style></defs><title>cloud-1</title><path class="cls-1" d="M342.88,145.06c-.53,9.12-2.21,17.09-9.48,23-4.94,4-10.42,5.36-16.57,5.34-17.43-.07-32.24-3-46.61-13.38-10-7.29-19.91-15.46-31.4-20.45-3.67-1.6-6.72-1.26-10.66-1.25a87,87,0,0,0-25.7,3.48c-15.09,4.48-26.21,13.68-42.42,9.8-5.52-1.32-11.3-3-15.14-7.19-3.13-3.41-4.53-8-6.7-12.11-12.16-22.92-47.05-23.17-67.72-13-7.58,3.74-12.84,8-21.89,8.3-6.06.18-12.17-.11-18.23-.08-10.27.05-19.08-1.81-27.44-8-8.63-6.39,4.14-12.32,9.5-14.57,3.29-1.38,7.65-2.5,10.59-4.59,4.66-3.31,4-6.94,4-11.88a49.64,49.64,0,0,0-3.35-17.58c-2-5.45-4.65-10.8-4.9-16.69A20.22,20.22,0,0,1,31,34.69c4.43-1.8,8.9-1.65,13.6-1.62,13.47.08,24.57.24,34.56,10.92C77,41.63,97.91,36.95,100.1,36.25c9.43-3,18.84-7.15,26-14.12,6.24-6.07,10.63-14,18.36-18.5,8.27-4.77,20.9-4.36,29.72-1.54C186.38,6,190.1,16.18,190.27,28c.1,7.1,2.55,18.62,11.41,18.67,7.58,0,14.38-6.19,20.34-10.19,3.57-2.39,6.12-4.59,10.42-4.75a69.26,69.26,0,0,1,9.48,0c5.06.55,12.37,5.75,14.57,10.24,3.54,7.22-.36,16.1,1.57,23.6,1.76,6.84,6.35,6.9,12.17,6.75a11.71,11.71,0,0,0,9.12-3.95c3.28-3.55,6.79-7.24,9.88-11,2.95-3.54,4.76-4.35,8.86-6.18,3.66-1.63,5.77-3.32,10-3.31,9.06,0,17.57,5.29,23.18,12.21,2.32,2.86,4.09,6.14,6.2,9.14s2.71,4.66,2.67,8.4.1,6.9-1.59,10.42c-1.52,3.17-5.38,4.84-6.5,7.76-2.62,6.81,3.2,17.58,5.4,23.69,1.72,4.77,5.29,9.76,5.46,14.81C343,137.82,343.08,141.54,342.88,145.06ZM231.08,102C221,94.23,209,89.92,197,86c-11.38-3.69-23.74-5.91-34.65-10.95-8.17-3.77-12-11.39-22.06-10.4-6.46.64-22,3.83-15.62,13.49A8.17,8.17,0,0,0,128.52,81c6.54,2.68,14.28,1.74,21.2,1.71,2.27,0,4.41-.39,6.45.9,5.26,3.3,8.74,7.6,14.73,9.88,10.15,3.87,20.65,3.73,31.25,5.18,6,.82,11.88,2.4,16.93,5.88s9.44,7.64,15.66,8.66C244.71,114.82,233.64,104,231.08,102Z"/></svg>