<svg id="Layer_4" data-name="Layer 4" xmlns="http://www.w3.org/2000/svg" viewBox="0 0 191.31 155.67"><defs><style>.cls-1{fill:#4a58b0;}</style></defs><title>cloud-5</title><path class="cls-1" d="M188.41,127.51c-2.38-1.95-6.07-2.45-7.47-5.2-2.28-4.48,3.78-8.87,4.34-13.86.46-4.13-3.08-7.76-7-9.28s-8.14-1.62-12.17-2.64-8.19-3.41-9.3-7.42c-1.32-4.75,2.1-9.61,1.79-14.53-.37-6-5.9-10.14-8.78-15.39C146.34,52.75,147,44.95,146,37.66s-4.73-15.45-12-16.71c-11.23-2-20.55,14-31.38,10.48-5.64-1.86-8.27-8.23-9.8-14S89.81,5.3,84.87,2C78.17-2.48,69,1.28,62.71,6.26S50.46,17.68,42.5,19c-8.8,1.41-18-4-26.48-1.36-6.62,2-11,8.46-13.23,15-5,14.55-2.42,30.34.82,45,2,9.08,2.23,20.67,7.34,28.74,7,11.08,21.51,18.42,32.76,24.5,7.45,4,16.23,6.42,24.44,4.31,11.08-2.85,13.56-12.53,21.35-19.27,5.78-5,14.09-6.35,21.62-5s14.44,5,20.88,9.15,14.29,9.08,21.47,6.14c4.38-1.8,10.78-6.29,13,.91,2.66,8.53.35,19.61-.48,28.37,6.52,1.77,14.69-5.63,19.05-9.68,2.57-2.39,4.91-5.21,5.85-8.58S191.13,129.73,188.41,127.51Z"/></svg>