<svg id="Layer_4" data-name="Layer 4" xmlns="http://www.w3.org/2000/svg" viewBox="0 0 840.78 391.73"><defs><style>.cls-1{fill:#4a58b0;}</style></defs><title>cloud-3</title><path class="cls-1" d="M663.49,15.94l-.15-.72a4.14,4.14,0,0,0-.86-.2l.88.88Zm167,248.53c0-.17,0-.35-.07-.52,0,.14,0,.29,0,.43ZM198,170.12c-2.28-.58-3.63.28-5.48-1.76a28.14,28.14,0,0,1-2.5-3.72,22.44,22.44,0,0,0-4.19-4.62c-1.62-1.41-1.33-2.59-2.4-4.35a9.72,9.72,0,0,0-3.91-3.13c-1.6-.77-3.2-1.95-5-2a12.07,12.07,0,0,0-4.6.39c-2.25.83-5.1,3.13-5.81,5.52-.92,3.07,2.45,6.31,3.92,8.74,1.35,2.22,3.77,5,3,7.8-.52,2-4.17,2.1-5.92,2.59-3.62,1-5.55,4.55-2.62,7.53a8.32,8.32,0,0,0,3.12,2.47c1.3.45,3.34,1,4.61.22,2.49-1.45,3.61-4.42,6.79-4.75a38.39,38.39,0,0,1,3.93,0c1.53,0,3.16-.26,4.57.36.81.36,1.65.6,2.45,1,1.53.69,2.66,2.09,4.08,2.94a9.28,9.28,0,0,0,5,1.24,16.14,16.14,0,0,0,2.46,0c.9-.15,1.66-.66,2.53-.86,5.49-1.3,10.6,1.5,15.49,3.54a3.11,3.11,0,0,0,3.88-.76A3.61,3.61,0,0,1,221,188c-1.93-2.49-5.67-4.49-8.13-6.43L199.49,171a4.08,4.08,0,0,0-1.43-.85Zm641.28,39.09a204.1,204.1,0,0,1-4.75,28.28c-2.2,8.46-5.26,17-4.22,25.87a6.6,6.6,0,0,0-1.75-2.14,8.83,8.83,0,0,1,2,5.27c.09-3.81,3.15,1.37,3.37,3,.35,2.56-3.33,7.36-4.88,8.93-5.54,5.62-15.78,4-22.94,3.44-16-1.34-31.52-5.9-47.56-6.67-16.78-.81-32.42,1.74-48.6,6.09-15.35,4.12-30.31,8.29-46.37,7.83a115.75,115.75,0,0,1-45.93-10.88c-9.77-4.61-30.06-17.45-37.78-2.21-2,3.88-.58,7.29,3.78,8.1,7.77,1.43,13.74-5.87,21.67-1.61,6.69,3.59,7.52,10.45-1.27,10.42-5.58,0-13.6-3.38-18,1.93-11.22,13.42,26.83,13.86,31.81,14.81,7.8,1.49,8.3,7.27-.1,8.14a35.78,35.78,0,0,1-9.27-.31c-3.94-.63-8-3.09-12-3.13-4.78,0-9.17,5.53-13.95,4.27-6.07-1.61-4.71-9.68-11.79-11.17a37.22,37.22,0,0,1-15.55-6.88c-5.13-3.72-10-7.83-16.5-8.8-6.23-.94-11.25-.23-13-7.59-.65-2.81-.2-6.95-2.37-9.17-2.88-2.94-5.1-.4-6.44,2.45-3.13,6.67-3,10.8-9.82,15.22-6.18,4-12.75,6.64-18.16,11.82-4.86,4.65-9.43,9.56-14.45,14-2.69,2.4-8.64,6.48-5.41,10.4,2.21,2.68,8,2.79,11.17,2.81,7.19,0,13-2.52,18.58,3.44s1.35,5.95-4.29,6c-5.83,0-14.7,1.15-19.11,5.49-6.06,6,.15,7.93,3.79,11.69,5,5.2-4.76,14.38-8,18.71-2.54,3.43-9.07,16.11-14.48,14.54-4.12-1.2-5.93-10.07-9.35-12.93-5.62-4.69-13.1-6.24-19.32-9.9-2.57-1.51-5.45-3.43-7.07-6-1.8-2.85-.41-7.58-2.64-9.86-3.45,2.48-1.84.95-5-.23a15,15,0,0,0-6.11-.82c-5.93.18-10.42,3.42-15.83,5.42s-8.71,2.51-11.37,7.83c-3.18,6.36-7.63,8.81-14.39,10.81-12.06,3.56-24.49,5.82-37.15,4.26-6.5-.81-12.82-2.93-19.36-3.44-5.58-.44-11,1.12-16.57,1.15-13.18.08-14.66-11.67-23.31-19-4.33-3.66-9.37-5.24-14.19-8-4.53-2.58-5.71-8.28-11-7.5C233,345.07,217.56,349,208.8,339c-3.76-4.29-2.84-10.7-6.44-15.08-2.57-3.12-7.06-4-10.82-5.13-3.25-.95-7.08-2.29-10.51-2.08s-6,2.4-9.1,3.88c-5.17,2.45-8,8.35-12.85,10.46-5.49,2.38-13.86-.46-19-2.5-6.2-2.43-12.16-5.68-18.14-8.61-5.46-2.68-11.92-5.38-16.06-10-3.88-4.3-5.38-10-9.44-14.1-4.57-4.61-10.48-10.47-16.39-13.27-11.79-5.58-26.65-2.34-39.25-3.19-4.76-.32-11.78-.38-15.43-3.93-4.6-4.47-1.55-8.71,2-12.23,4.22-4.25,1-7.33-2.4-11.48-4-4.76-9.36-8.87-15.49-10.27-3.06-.7-9.12.87-9.39-3.77-.16-2.75,3-4.73,4.95-6,6.4-4.1,14.3-5.39,20.58-9.58,2.2-1.47,6.15-4.05,6.18-6.88s-2.15-3.64-1.27-6.72c1.63-5.71,6.15-4.4,10.2-2.38,8.57,4.27,14.39-.24,23.22-1.31,1.52-.18,3.87-.65,5.33,0,1.69.8,1.26,1.64,2.31,2.57,4.85,4.27,13,9.41,19.77,9-1.82-5.55-6.67-7.89-1.65-13.58,1.38-1.57,3.89-2.57,5-4.27,1.49-2.24.62-4.13.89-6.63,1.55-14.28,15.68-16.43,25.41-8.64,4.72,3.77,8.49,7.71,14.56,9.21a68.15,68.15,0,0,0,10.37,2.14c3.2.24,6.26-2.08,9.37-1.55,4.32.73,6.77,6.47,6.2,10.51-1,7.42-8.85,2.75-13.33,5.63a23.46,23.46,0,0,0,10.5,4.92c1.75.33,7.07-.48,8.39,1.41,1.56,2.23-1.21,3.68-1.39,5.64-.33,3.52,3.33,5.32,6,6.88,3.34,1.93,5.49,1.62,9.38,1.94a31,31,0,0,1,10.7,3.33,29,29,0,0,1,9,6c2.18,2.24,3.27,3.9,6.33,4.64,3.74.91,7.73-.42,11.55,1s5.45,3.78,7.48,7c2.83,4.55,11.59,11.8,7.56,17.68-1.58,2.31-5.21,4-7.21,5.93a53,53,0,0,0-6.77,8.76c-3.65,5.53-9.48,13.34-1.15,18,5.1,2.83,13.33,2.46,17.66-1.4,2.3-2.06,3.76-4.91,6-7.06,3-2.91,6.92-5.28,10.38-7.64,12-8.22,22.92-21.25,22-36.76-.16-2.69-1.82-13.2-6.16-13.5-1.9-.13-1.21,13.62-4.14,16.22-5,4.5-12.21,3.1-17.74.51-3.61-1.69-4.25-2.92-2.86-6.7,1.23-3.35,1.29-5.18.91-9-.35-3.59-1.54-8.72,2.48-11,3.18-1.79,8,1.05,11.31,1.54,9.21,1.36,3.6-4.73,10.5-7.27,3.63-1.34,6.19.91,9.19,2.38,3.45,1.69,6.38,1.71,10.16,1.84s7.06,1.15,10.7,1.05c2.36-.06,7.3-1.75,9.41-.3-.08,2.88-4.07,1.82-3.29,5.51.52,2.47,3.77,3.44,5.67,3.36,2.6-.11,4.24-2.1,6.36-3,3.61-1.51,6.41-.47,10.19-1.23a10,10,0,0,0,6.15-3.39c2.13-2.59,2.75-2,0-5.11-5.28-6.07-10-7.9-17.78-7.85-6.7,0-12.68.9-17.69-4-4.74-4.63-5.31-10.43-12.93-10.5-6.54-.06-13.59,1-19.56-2.33-5.59-3.14-7.51-11.13-13.64-13.22-4.78-1.63-11.15.32-15.49,2.41-2.79,1.35-5.29,3.68-8.46,4.18-1.32.21-3.12.34-4.31-.44-3-2-.64-1.33-.77-4-.31-6.69-4.53-11.35-10.38-14.83-6.64-4-13,.46-19.18-4.47-4.26-3.38-9.18-8.92-4.91-14.26,4.62-5.77,12.29-4.28,17.91-1.4,7.11,3.64,11.34,2.28,18.75.39,5.18-1.32,11.38-2.48,11.21,4-.12,4.45-.82,5.23,2.65,8.73,2,2,3.41,3.15,6.33,3.29,2.15.1,7.24-1,9-2.54,2.69-2.34,1.11-5.35,2.44-8.5,2.49-5.9,10.24-10.5,15.2-14.16,6.87-5.08,12.69-7.13,21.22-7.69,7.45-.48,15-.66,22.33-2.3,7-1.58,5.21-7.55-1.34-7.93-6.28-.37-12.57,1.9-18.77-.77-5.35-2.3-9.49-7.73-4.22-12.39,2.42-2.14,2.84-.62,3-4.38.13-3.19-.91-4.58.37-7.88,2.85-7.37,8.38-6.53,15.12-6.46,5.45.06,11.39.3,16.2-2.7C331.15,86,331.83,80,335.8,75.73c3.29-3.54,12.26-6.63,16.95-4.65,6.14,2.59,0,10.89,3.9,15.25,4.27,4.83,11.5-.32,15.2-3.16a45.37,45.37,0,0,0,7.59-7.55c2.22-2.86,2.52-5.79,4-8.92,2.77-5.77,10-8.49,16-8.17,3.2.17,6.52.71,9,3s2.28,5.39,4.2,7.77c4.11,5.13,8.92,2.23,8.89,10.57,0,3.28-.36,6.73,2,9.35s6,2.28,9,3.76c3.41,1.68,5.45,4,4,7.57-1.12,2.7-3.58,2.82-2.42,6,1,2.78,5.22,3.86,6.31,6.64,1.7,4.33-2.32,5.27-3.66,8.6a6.72,6.72,0,0,0,2.07,7.21c3.56,2.86,5-.18,8.55-1,1.59-.38,11.61-.37,10.61,2.58,2-2.43,2.85-2,.87-4.37-2.34-2.76-7.59-2.09-7.4-7.11.12-3.34,4.35-6.32,7.25-7.21,5.62-1.71,5.28,2.36,9.35,3.81,9.23,3.27,5-12.77,7.26-15.69s7,.62,9.69-1.09c4.64-2.92-.47-8.49,1.42-11.48,4.62-7.33,10.89,4.76,11.81,8.09,1.14,4.16,1.82,7.25,6.8,7.28,4.63,0,8.37-3.69,11-7.11,3.58-4.73,11.89-15.82,19.33-11.56,2.67,1.53,2.51,5.36,5.12,6.85,4,2.25,6.76-2,9.9-3.37,3.72-1.63,3.81-.76,3,3.72-.56,3.31-2.33,6.38,1.56,7.71,3.4,1.17,7.47-.82,11.07.52,3,1.13,6.81,6.74,10,6.46,5.93-.54,4.13-9.36,3.7-13-1.11-9.33.88-16.95-8.93-22.11-3.54-1.87-7.71-3.14-9.73-6.94-1.66-3.13-.91-6.57-2.81-9.69-2.05-3.38-5.84-5.41-7.69-8.95-2.84-5.44-.24-7.32,2.67-11.35s.24-7.17.65-11.55c.36-3.85,2.1-5.08,6.12-6.42,8.81-2.92,18,2.14,24.15-6.54,5.21-7.37,14.41-14.18,22.22-5.24,2.12,2.43,1.56,7.76,4.17,8.5,2.41.69,7.51-3.66,9-4.87,8.23-6.62,14.85-5.43,21.64,2.28,6,6.77,15.85-.56,21.25,4.85-.58-.58-2.71,0-3.38,0,19.95-.17,35.31,24.47,48.57,36.42A254.36,254.36,0,0,0,773.41,94c11.47,5.18,24.47,7.17,35.48,13.21,10.37,5.69,17.13,15.79,21.95,26.32C841.63,157.08,842.17,183.91,839.28,209.22ZM150.59,196a7.82,7.82,0,0,0,1.3,0Zm298.74,35.4a25.89,25.89,0,0,0-1.19-2.92c-3.43-7.25-16.82-4.32-23-4-2.57.14-5.54,1.24-8.1.28s-5-3.35-7.19-5c-3.7-2.79-7.82-3.76-12.3-4.63-3-.58-5.67.13-8.52.78a11.22,11.22,0,0,0-2.88,1,14.57,14.57,0,0,1-2.58,1c-8.67,2.43-21.61-3.51-28.56,2.62a31,31,0,0,0-3.5,3.5c-.94,1.17-1.3,2.73-2.09,4-1.43,2.32-3.22,5-.64,7.27,2.1,1.83,4.91,2.05,7.62,1.76,8.62-.94,11.84-3.72,20.58.49,7,3.36,17.15,13.65,24.49,6.08,2.43-2.5,4.23-5.8,7.38-7.31,4.71-2.26,10.45,1.11,15.09,2.17C432.12,240.37,454.33,246.51,449.34,231.44Zm90.49-112.63c-4.89.29-9.38,0-12.91,4.32-3.36,4.08-3.09,10.16-5.19,14.9-.65,1.46-2.18,2.78-3.2,4a16.11,16.11,0,0,1-7.05,5.22c-2.15.78-4,.48-6.17,1-1,.21-1.82.32-2.79.49s-2.05.25-2.76,1.3c-3.17,4.71,7.56,5.79,10.09,5.44,4.81-.65,8.29-5.51,12.66-7.41,3.61-1.57,8.53-2.72,12.42-1.61,6.54,1.88,4.28,8.09,6.7,13,1.74,3.5,7,3.55,9.7,1.38,1.9-1.53,2.8-3.7,4.5-5.39a20.24,20.24,0,0,1,5.48-4c4.59-2.1,9.52-4.51,14.7-4.68,5.6-.19,10.13.2,15.22-2.64,4.51-2.51,6.86-8.93,6.63-13.89-.09-2-1-2.51-2.66-3.45-2.5-1.38-4.6-3.36-7.35-4.2-4.75-1.43-8.8.69-13.07,2.49-10.28,4.34-20.72,1-30.2-3.62-3.83-1.87-8.27-3.89-12.16-2.15Z"/></svg>