<svg id="Layer_6" data-name="Layer 6" xmlns="http://www.w3.org/2000/svg" viewBox="0 0 334.49 326.18"><defs><style>.cls-1{fill:#4a58b0;}</style></defs><title>cloud-10</title><path class="cls-1" d="M18.5,257c.48-1.48,2.49-3.2,1.28-5a10.81,10.81,0,0,0-3.51-2.17c-1-.26-1.63-.19-1.34,1.07a12,12,0,0,0-2.25,1,4.72,4.72,0,0,0-2,3.25,33.2,33.2,0,0,0-.82,4.18c-1.58.27-3.16.94-4.72,1.34-1.82.47-4.62,0-5.09,1.86s3.76,2.6,5.51,3.26a22.73,22.73,0,0,0,4.38,1.15c.69.11,2-.42,2.57,0s.13,1.43.6,2c.6.75,3.07.62,3.9.48,1.17-.19,1.28-.87,1.65-2a11.9,11.9,0,0,0,.81-5C19.25,260.58,17.88,258.93,18.5,257Z"/><path class="cls-1" d="M141.42,95.69c.37,1.67,2.18,1.89,3.42,2.72a4.38,4.38,0,0,0,3.1,1,15.88,15.88,0,0,0,4.1-.9c1.38-.4,2.54-.5,3.65-1.39,1.27-1,1.69-.73,1.76.76a13.62,13.62,0,0,1-.42,2.9c-.24,1.57.54,1.56,2,1.61a9.1,9.1,0,0,0,3.69-.28c1.28-.52,2.3-1.55,3.72-1.76a3.18,3.18,0,0,1,2.5.48c.87.7,1.16,2.32,2.64,1.4,1.33-.83.88-3,.85-4.33s-.17-1.49,1.08-1.54a7.18,7.18,0,0,1,3.3.61c1.56.74,2.54,2.15,4.13,2.93,2.76,1.35,5.48,1,8.51,1,.9,0,2.16-.29,3,.07,1.37.59,1.68,2.54,1.53,3.83-.26,2.26-2.11,3.82-2.05,6.13s2.56,3.77.83,6.09c-2.2,2.95-5.09.86-6.82-1.26a9.88,9.88,0,0,0-2.5-2.39,16.24,16.24,0,0,0-3.35-1.9c-2.28-.67-5.09.14-5.2,2.9s2,4.7-1.83,5.43a17.72,17.72,0,0,1-3.73.11c-1.21,0-2.19-.47-3.35-.54-1.91-.12-2.47,1.34-2.56,3.06a8.23,8.23,0,0,0,.06,2c.15.71.69,1.21.89,1.88.39,1.34.17,2.42-1.2,2.64a3.27,3.27,0,0,1-3.21-1c-2.06-2-3.54-5.86-7-5-.54,2.72.19,5.71.16,8.44-.83.14-2.84-1.64-3.46-2.2-1.35-1.23-1.44-2.82-1.8-4.49-.3-1.36-.61-3.84-1.48-4.91s-2-1.4-2.89-2.26a7.62,7.62,0,0,1-1.61-2.7c-.82-2.23-.76-5-1-7.34-.17-2-1.7-3.26-2.91-4.83a10.26,10.26,0,0,1-1.65-6.4c.1-1.05,1.19-4.48,2.54-4.63a10.66,10.66,0,0,1,3,5.26S141.27,95,141.42,95.69Z"/><path class="cls-1" d="M176.9,146c-.9.39-1,1.2-1,2,0,1.44.37,1.62,1.29,2.62s1.18,3.83.66,5.17c-.34.88-1.37,1.47-1.93,2.21a4.34,4.34,0,0,0-1,3.35,5.53,5.53,0,0,0,1.51,3.57c.69.69,1.55.9,2,1.76a12.3,12.3,0,0,0,4.1,4.74c2.16,1.24,3.8-.22,5.9-.56a16.43,16.43,0,0,1,2,0c1.57-.05,1.85.05,2.78,1.43,1.25,1.87,3.33,4.53,5.75,4.62a6.24,6.24,0,0,0,3-.4c1-.49,1.53-1.48,2.47-2s2-.53,2.91-1.08a11.64,11.64,0,0,0,2.32-2,7.79,7.79,0,0,0,1.77-2.29c.21-.73-.37-2.09.06-2.74.56-.86,2.19-.31,3-.93a5.81,5.81,0,0,0,1.46-2.4,5.44,5.44,0,0,0,.5-2.62,4.69,4.69,0,0,0-.09-1.38c-.18-.64-1-1.14-.89-1.84s1.9-2,2.49-2.5,1.37-1.21,2.08-1.78a21.76,21.76,0,0,0,3.33-2.64c.42-.5.44-1,.8-1.52a3.42,3.42,0,0,1,2.27-1.49,46.94,46.94,0,0,1,5.76-1.6c2.34-.52,4.33-1.3,6.75-1.26.74,0,1.95.32,2.56-.16s.48-2.17.45-3c-.1-2.09-1.44-3.74-1.53-5.82a17,17,0,0,1,.91-4.66c.49-2.09.17-4.76.12-6.9a28.94,28.94,0,0,0-.49-3c-.17-1.43.52-2.68,1-4a5.25,5.25,0,0,0-2-6.43c-2-1.43-4.19-1.6-6.52-1.59a20.47,20.47,0,0,1-2.59.06c-1.48-.2-2.57-1.47-3.71-2.32-1.85-1.38-4.17-2.16-6.19-3.24-1.52-.81-2.07-1.23-3.16.49-1.46,2.31-1.49,5-1.38,7.61a35.86,35.86,0,0,0,.79,4.87c.24,1.35.23,2.69.48,4,.17.92.56,2.11.15,3-.61,1.33-2.34,1-3.53,1a10.85,10.85,0,0,1-2.73-.08c-1.06-.3-1.62-.87-2.76-.92a5.27,5.27,0,0,0-2.87.44c-1.76.9-1.74,2.35-2.07,4-.52,2.72-.53,4,.83,6.52s2.71,4.81,4.17,7.19a10.13,10.13,0,0,1,1.52,4.33c-.05,1-1.77,2.83-2.55,3.51a10.35,10.35,0,0,1-4.45,2.39c-2,.44-3.8-.31-5.57,1.18-2.2,1.85-2.48,5.3-4.86,7-2.12,1.48-4.6,0-5.56-2-.62-1.31-.45-2.73-1.18-4a11,11,0,0,0-2.56-2.73c-.39-.32-.83-.57-1.23-.87a12.27,12.27,0,0,1-2-2.3C179.57,147,178.13,145.44,176.9,146Z"/><path class="cls-1" d="M184.5,78c-.46.72-.08,2.63-.08,3.5s.44,3.14-.43,3.81-3.81,0-5,.07c-1.07,0-1.7-.11-2.07,1a3,3,0,0,0,.23,2.09c.85,1.1,3.6,1.1,4.82,1.58,2.39.92,2.55,2.09,2.49,4.51-.05,2.1.48,4.26,3.23,3.92,3.83-.48-.24-6.3,3.27-7a6,6,0,0,1,4.24,1c.54.31,1.64,1.35,2.33,1s.44-2.06.44-2.73c0-2.09-.48-2.79-2.21-4-.58-.42-1.16-.83-1.76-1.21s-1.82-.86-2-1.33c-.87-2,1-4.22-1-5.92-1.48-1.26-3.72-.77-5.55-.77A1.27,1.27,0,0,0,184.5,78Z"/><path class="cls-1" d="M243.94,88.94a11.1,11.1,0,0,0,0,4.47c.76,1.74,3.18,1.55,4.71,1.49,1.85-.07,2.1-1.16,3.23-2.52a17.84,17.84,0,0,1,1.61-1.89c.66-.59,1.38-.72,1.93-1.46,1-1.37,1.56-3.06,2.76-4.33,1.93-2,5.26-6.31,8.25-3.34,1.23,1.22,1,2.84,1,4.41a30.31,30.31,0,0,1,0,4.82c-.14.83-.66,1.58-.85,2.41s-.29,2-.49,2.94c-.33,1.64-1.31,3.07.56,4s6.11,1.07,6.36-1.52a69,69,0,0,0-.06-8.54c0-1.26,1-3,2.51-3,1,0,1.48,1.3,2,2a5.74,5.74,0,0,0,2.44,2c1.26.44,3.47.92,4.79.46a7,7,0,0,0,3.15-2.83c.55-1.68.17-3.39-1.39-4.16-.92-.45-1.75-1.06-2.65-1.51a21.24,21.24,0,0,0-3.37-1,18.21,18.21,0,0,1-3.54-1.28c-1.34-.76-1-1.92-1-3.3s-.4-3.54.57-4.8a18.92,18.92,0,0,1,5-3.86c.82-.51,1.66-1,2.5-1.5s2.57-.9,3.28-1.71c1.46-1.68.52-3.6-.57-5-1.4-1.84-2.39-2.26-4.68-2.77a23.42,23.42,0,0,0-5-.23,6.75,6.75,0,0,0-1.83,0c-.87.27-1.52,1.25-2.14,1.88a16,16,0,0,0-3.5,5c-1.73,3.72-4.89,5.33-8.6,6.43-2.43.72-3.84,2.84-4.7,5.1-.63,1.65-1.66,2.91-2.29,4.54-.39,1-1,1.9-1.41,2.91s-.52,1.77-1.64,2.34a9.16,9.16,0,0,1-3,.78c-.91.1-1.62.35-2.49.49"/><path class="cls-1" d="M298.82,23.77c-2-.78-4-1.41-6-2-1-.28-1.89-.75-2.88-1a22.39,22.39,0,0,1-4.44-1.24,24.15,24.15,0,0,1-2.87-1.87,20.62,20.62,0,0,1-3.19-2.25c-1.19-1.16-2.39-1.63-3.14-3.11a30,30,0,0,0-2-3.94c-1.6-2.25-4.55-2.22-6.9-3.35a32.2,32.2,0,0,0-3.5-1.52c-.81-.27-1.31-.16-1.62.17-.8-1.1-1.4-2.62-2.35-3.28-2.51-1.74-3.09,3-3,4.75.13,3.18,3.56,4.38,5.26,6.74,1.4,2,.3,4.35,1.1,6.5,1,2.78,3.56,4.4,4.79,7,.39.82.37,1.71.71,2.54a15.73,15.73,0,0,1,1.14,3.22c.25,1.24.68,2.5.89,3.75a8.48,8.48,0,0,0,1,3.53c1.23,1.94,4.59,2.88,6.14.88a12.58,12.58,0,0,0,2-5.16,6.14,6.14,0,0,1,1-2.79c1-1,2.54-1,3.8-1,3.08,0,5.18.27,7.78,2,1.74,1.16,3.67,2.46,5.85,1.92,1.86-.46,5.16-3.13,5.5-5.23C304.3,26.68,300.71,24.51,298.82,23.77Z"/><path class="cls-1" d="M313.42,91.4A4.17,4.17,0,0,0,309.9,91c-1.36.76-1,3.91-1,5.19a25.13,25.13,0,0,0,1.28,5.25c.22.8.51,1.32-.19,1.9s-2.77.85-3.69,1-5-.61-5,1.08c0,1.41,3.23,2.79,4.24,3.5,2,1.39-.33,3-1.65,4-1.61,1.23-3.6,2.36-4,4.54-.3,1.78.75,3.38-1.72,3.48-1.58.06-3.2,0-4.78,0s-3.29-.74-5-.54-3.21,1.14-4.83,1.48c-5.37,1.12-1.9-8.19-5.82-9-2.1-.43-2.75.95-3.75,2.42-1.49,2.19-3.16,2.12-5.62,2.11-2.71,0-6.78-.89-8.54,1.59-.95,1.33-1.56,3.38-.44,4.76a15.1,15.1,0,0,0,7,4.55,18.85,18.85,0,0,0,5.41.11c2-.13,4.39-1.68,5.34,1,.59,1.64-.24,3.51,1.51,4.71s4.83.35,6.1-1.14c1.47-1.72,2.93-3.32,4.53-4.94a8,8,0,0,1,4.8-2.37,10.87,10.87,0,0,1,6.27.45,9.25,9.25,0,0,1,2.53,1.14A5.05,5.05,0,0,1,305,130.3a10.22,10.22,0,0,0,1.52,2.55c.94,1.2,2.06,1.27,3.28,2a16.24,16.24,0,0,0,2.27,1.53,12.06,12.06,0,0,0,3.07.71,35.13,35.13,0,0,0,6.73.79c3-.08,4-2.47,4.65-5a11,11,0,0,0,.38-4.15c-.24-1.41-.88-1.3-2.46-1.6-2.5-.47-5.72.35-7.57-2-.65-.81-.8-2.06-1.24-3a22.37,22.37,0,0,1-1.54-3.45c-.7-2.56,1.13-4.66,2.29-6.79s1.8-4.39,2.88-6.52a13.62,13.62,0,0,0,1.62-6.07c0-3.07-1.68-4.23-4.28-5.65a18,18,0,0,1-2-1,12.24,12.24,0,0,0-1.21-.62c-.65-.36-1.65-1.28-2.4-1.4l-.61.76"/><path class="cls-1" d="M305.42,36.4c1.08.62-.08,3.77.1,4.63a18.54,18.54,0,0,0,2.4,5.75c1.81,3,2.76,6,6.25,7.39a13.55,13.55,0,0,0,3.64.71c1.93.24,2.3,2,2.75,3.63a14.45,14.45,0,0,1,.39,5c-.17,1.86-1,3.45-.2,5.32a4,4,0,0,1-3,.62c-1-.22-1.7-1.13-2.49-1.81a15.75,15.75,0,0,1-2.3-2.62c-.55-.74-.88-1.72-1.45-2.39a5.07,5.07,0,0,0-5.54-1.43,13.21,13.21,0,0,1-2.59,1.11c-1.67.35-2.29-.78-3.19-2.12a2.79,2.79,0,0,1-.71-2.53c.35-1.42,1.92-2.38,2.54-3.78a13,13,0,0,0,1-5.76,48.28,48.28,0,0,0-.54-5c-.17-1.85-.53-4.29.28-6a1.83,1.83,0,0,1,.63-.76.8.8,0,0,1,.37-.15c.23,0,.42.12.64.15s.5-.05.76,0A.84.84,0,0,1,305.42,36.4Z"/><path class="cls-1" d="M237.42,217.62c0-3.44-.88-7.56-4-9.6-2.38-1.58-5.28-1.63-8-1.62s-8.56-1.43-9.89,1.69c-1.51,3.53,2,8.7-3.91,9.4a58.41,58.41,0,0,1-8.46-.07c-5.11-.18-9.1-3.55-14-4.77-3.07-.77-5.84-2.17-9-2.27-2.55-.08-8.46-1-10.25,1,.34,2.05,3.76,5.27,5.22,6.85,2,2.18,4.27,4.21,6.37,6.33A28.86,28.86,0,0,0,185,228a59.07,59.07,0,0,0-6.21-.08c-3.75.14-7.43.46-11.19.53-3,.05-5.42-2.28-8.45-2.71-5.63-.8-8.32,3.76-12.8,6-4.12,2.09-9.82,1-14.1.1a46.16,46.16,0,0,1-12.08-4.16c-2.27-1.22-4.77-2.15-6.86-3.65a20.84,20.84,0,0,1-3.86-3c-2-2.4,1.71-3.59,3.26-4.8,2.06-1.61,3.93-3.46,6.15-4.86,2.56-1.61,5.51-2.38,8.35-3.36a44.85,44.85,0,0,1,5.92-1.59,11.83,11.83,0,0,0,7.13-4.85c1.48-2,1.88-4.24,2.88-6.44.55-1.22,1.43-2.17,1.74-3.49.65-2.75-.57-4.2-2.71-5.94-1.21-1-2.74-1.29-4-2.12a16.1,16.1,0,0,1-2.82-2.79,13.28,13.28,0,0,0-3.69-3c-2.76-1.26-5.2.86-6.95,2.84-.68.78-.65,1.55-1.16,2.39-1.24,2.07-4.65,2-6.79,2.26-2.92.37-5.89,1.05-8.77.23-1.6-.46-3.1-.73-4.31.62s-1.77,3.25-2.69,4.77-2.71,2.34-3,4.28c-.28,1.65.67,3.14-.91,4.24-1.3.9-3.12,1.12-4.51,2-1.12.68-2,1.64-3.18,2.27-2.2,1.23-6.56,1.21-8.41-.77,0,0-.82-2-2.5-2-1.53,0-3.07,0-4.6,0a27.49,27.49,0,0,0-6,1.12c-1.89.5-3.4,1.81-5.24,2.28a16.41,16.41,0,0,0-5,2.61c-4.13,2.64-8,5.33-11.14,9-2.47,2.87-5.51,4.79-8.46,7A13.39,13.39,0,0,0,34,227.9a7.93,7.93,0,0,0-.63,4.07c0,2.12,0,3.6,1.11,5.43s2.21,4.23,4.41,4.92a12.36,12.36,0,0,0,5.39,0c1.73-.75,1.79-2.31,4-1.87.45,1.71-.38,3.71.14,5.39,1.31.49,3.06-.14,4.45.05,1.63.22,2.1,2.09,3,3.42a5.09,5.09,0,0,1,1,2.06c.24.87.28,2.25,1.06,2.85,1.64,1.25,3.55-.82,5,1.28A7.08,7.08,0,0,1,64,258c.16,1.3-.25,1-.94,1.9s-.7,1.09.5,1.63c1,.45,1.81.85,2.77,1.38,1.23.68,4.22,2.17,2.58,4s-4.54-.5-5.89-1.31c-1-.62-2-1.19-3.09-1.75-.85-.44-1.62-1.5-2.6-1.57-2-.14-1.37,2.34-1.38,3.55a9.3,9.3,0,0,0,2,6.42c1.09,1.35,3.13,3.22.13,3.65-3.93.56-8.92-1.1-11-4.51-1.16-1.91-2.35-4.07-4.65-4.95A4.52,4.52,0,0,0,39.9,266c-1,.4-.58,2.6-2,2.62-.72-.76-.81-2.05-1.46-2.92a3.15,3.15,0,0,0-3-1.4c-1.59.09-1.4,1.15-1.79,2.51a14.29,14.29,0,0,0-.76,4c0,1.51-.22,3.15.46,4.55a33.49,33.49,0,0,0,2.82,4,16,16,0,0,1,2.75,8c.06,1,.21,2.24-.43,3a4.06,4.06,0,0,1-3.34,1c-1-.34-1.85-1.61-2.74-2.2-1.4-.93-2.75-1.77-4.1-2.79-2.76-2.08-5.1-2.79-8.41-1.52a7,7,0,0,0-4.7,6.05c-.34,2.33,1,4.65,2.19,6.53s3.28,2.61,4.55,4.39c1.67,2.35,1.43,4.49,2.26,7.06a5.52,5.52,0,0,0,2.88,3.51c2.1.94,4.89.91,7.13,1a13.63,13.63,0,0,0,7-1.55c2.41-1.08,6.8-2.71,9.14-.55,1.37,1.27,1,3,1.21,4.71a31.72,31.72,0,0,0,1.11,6.14c.41,1.21.75,2.66,1.8,3.44,1.56,1.17,3,.35,4-1.11,2.6-3.66,2.47-9.33,2.45-13.64a9.64,9.64,0,0,1,.26-3.79c.81-1.91,2.87-2.8,4.63-3.59,3.77-1.7,7.95-3.59,10.38-7.1a20.66,20.66,0,0,0,3.23-7c.72-2.87,3.95-4.21,5.3-6.8A17.79,17.79,0,0,0,84.5,276c.15-1.08.17-3.14.75-4.09.86-1.4,3.35-3,4.84-3.69,1.09-.51,2.45-.28,3.64-.27H98c2.83,0,6.28.75,8.63-1,2.78-2,5.39-4.89,8.76-6,2.83-.91,6.11-.65,9.05-.6,3.43.05,6.31,4,8.84,5.93,1.71,1.28,3,2,3.62,4.06a4.88,4.88,0,0,0,1.45,2.51c1.4,1.31,2.55.67,4.15-.3,2.93-1.77,4.2-5.31,6.47-7.82,2-2.22,3.94-4.93,6.75-6.16a11,11,0,0,1,6.44-.6,19.5,19.5,0,0,1,7.67,3.79,6.57,6.57,0,0,1,3,5.4c.25,3.78,3.44,5,6.94,5.7,5.73,1.17,10.56-1.08,15-4.59,3.6-2.85,5-7.33,5.09-11.83,0-1.75-.27-3.31.33-5s2.09-2.69,3.73-3.54c1.23-.63,2.67-1.63,4.06-1.08,1,.42,1.65,1.58,2.63,2.08,1.5.76,3.4.48,5,.48,1,0,2.53.43,3.13-.56.2-.32.1-1.14.3-1.55a25.9,25.9,0,0,1,1.81-2.51c1.13-1.72,1.73-2.75,1.2-4.85a10.36,10.36,0,0,0-4.51-6c-2.15-1.37-4.64-1.59-6.84-2.58a24.63,24.63,0,0,0,3.12-1.55c4.94-2.85,11-6.12,16.73-7.19,1.78-.33,4.79.54,6.2-.72C238,220.86,237.41,219,237.42,217.62Zm-34.72,15c-.71.44-1.52.64-2.23,1.07s-1.35,1.23-2.12,1.74c-1.57,1-3.63,1-5.41,1.33a12.79,12.79,0,0,1-4.13.66c-.55-.07-2.51-.42-2.75-.93,1-2.51,4-3.65,5-6.1a1.71,1.71,0,0,0,.13-1,21.25,21.25,0,0,1,6.32,1,42.07,42.07,0,0,0,5.69,1.84A3,3,0,0,1,202.69,232.62Z"/><path class="cls-1" d="M270.9,144.87c-.25,1.31,0,2.36-.48,3.66-.92,2.64-3.75,2.73-6,3.85a6,6,0,0,1-2.46,1.05c-.85.07-1.8,0-2.66,0-1.16,0-2.12-.14-2.89,1-1.58,2.27.19,6.25-2.17,7.83-1.25.83-2.38.66-3.78.7a3.89,3.89,0,0,0-3.55,2.62c-.76,1.65-1,6.21,0,7.8s3.2,1.7,4.95,2.09c1.36.3,2.62.83,4,1s2.62.35,4,.59c1,.18,1.53.81,2.65.25s1.33-2,2.59-2.51a7.45,7.45,0,0,1,6.91.87c1.41,1.22,2.21,3.59,2.62,5.32a5.87,5.87,0,0,0,1.85,3.45c1.76,1.77,2.74,5.61-.63,6-1.67.22-2.9-.41-4.28,1a4,4,0,0,0-1,4c.49,1.64,3.84,5.48,2.27,7.32-.86,1-4.8,0-5.89-.2a5.15,5.15,0,0,0-4.49.87c-2.09,1.7-4.48,4-3.93,7,.23,1.22,1,2.31,1.36,3.52.59,2.22-1.66,2-3.28,2-1.33,0-2.31-.17-3,1.07-.89,1.55-1.06,3.45-2.29,4.92-1.4,1.66-3.7,2.2-5.34,3.51a24.73,24.73,0,0,1-3.94,2.49c-1.68.91-3.42,1.82-5.13,2.63a54.46,54.46,0,0,0-5.29,2.37A7,7,0,0,0,228,236.8a5.55,5.55,0,0,0,1,5.6c1.19,1.62,3.27,2.68,4.16,4.5s-1.16,2.41-.71,3.91c.29,1,1.15.93,1.94,1.2a24.16,24.16,0,0,1,3,1.37,24.5,24.5,0,0,1,8.59,6.44,40.83,40.83,0,0,1,3.94,5.45,26.51,26.51,0,0,0,3,4.66,8.55,8.55,0,0,0,3.65,1.85,23.52,23.52,0,0,1,5.76,2.61,10.48,10.48,0,0,1,3.74,4.55c.74,1.86,1.25,1.34,3,1.06.84-.14,1.7.13,2.48-.24,1.07-.5,2.17-2,3-2.92a6,6,0,0,0,1.44-4.43c0-3.81-.28-12.84,5.9-11.82,3.08.51,5,4.21,7.92,5.38,3.72,1.5,7.19-.85,8.23-4.44.64-2.22,1.38-4.85-.51-6.66a46.81,46.81,0,0,0-4.13-2.93c-1.91-1.45-4.31-4-4.87-6.44-.43-1.89-.1-4.41-.05-6.34a20.38,20.38,0,0,1,.84-4.69c.67-2.5,3.36-2.7,5.55-2.15,2,.5,4,2.21,6.14,2.14,2.65-.08,3.19-3.55,3-5.62-.25-3-3.9-4-5.09-6.57-1.07-2.34-1.92-4.67.6-6.41,1.34-.93,2.89-1.66,4.3-2.46q1.79-1,3.5-2a7,7,0,0,0,1.64-1.5c1.43-1,4.4-1.59,5-3.45.39-1.22-.21-1.8-1.25-2.4-2.07-1.19-4.29-1.69-6.3-3.1a12.73,12.73,0,0,1-3.11-3,5.85,5.85,0,0,1-1.35-4.49,15.24,15.24,0,0,1,.12-2.8c.31-1.52,1.17-2.72.07-4.14-1.47-1.9-3.66-3.11-4.08-5.67-.31-1.88.41-4.14,0-6-.7-2.81-6.22-2-8.35-2a7.81,7.81,0,0,1-3.2-.17c-1.59-.72-3.33-3-4.4-4.31a17.86,17.86,0,0,1-2-3.08c-.83-1.55-1.61-2.3-.11-3.58.54-.46,1.9-1.11,1.93-2,.05-1.42-2.35-1.84-3.26-2-2.25-.46-4-.21-4.57-2.94-.66-3.06,2.13-5.38,1.54-8.35C274.78,142.75,271.16,143.49,270.9,144.87Z"/><path class="cls-1" d="M334.46,187c-.37-3-3.91-4.57-6-6.14a8.65,8.65,0,0,1-3.08-3.39,7.63,7.63,0,0,1-.47-3.74,3.23,3.23,0,0,0-1.22-3.09,9.58,9.58,0,0,0-3.79-2.65l-.36-.11h-5.61c-1.36,0-3.09-.66-3.07,1.08,0,2.07,2.05,3.23,3.3,4.67.83,1,2.24,2.29,1.69,3.72-.63,1.64-2.93,2.5-3.68,4.21s0,3.37-1.23,4.84-2.46.69-4,1c.06,2.62,5.26,3.43,7.1,3.44,1.35,0,2.58.6,3.9.54,2-.09,2.28-2.06,3.22-3.51.83-1.29,2.52-2.53,4.16-2,1.2.42,2.47,1.79,3.6,2.44a9.07,9.07,0,0,0,2.4,1,8.45,8.45,0,0,0,1.34.49C334.24,190,334.61,188.31,334.46,187Z"/><path class="cls-1" d="M265.43,78.15c2.19,0,4.53-4,1.49-4-2.19,0-4.53,4-1.49,4Z"/></svg>