<svg id="Layer_6" data-name="Layer 6" xmlns="http://www.w3.org/2000/svg" xmlns:xlink="http://www.w3.org/1999/xlink" viewBox="0 0 338.96 363.61"><defs><style>.cls-1,.cls-2{fill:none;}.cls-2{clip-rule:evenodd;}.cls-3{clip-path:url(#clip-path);}.cls-4{clip-path:url(#clip-path-2);}.cls-5{isolation:isolate;}.cls-6{clip-path:url(#clip-path-3);}.cls-7{clip-path:url(#clip-path-4);}.cls-8{fill:#4a58b0;}</style><clipPath id="clip-path"><rect class="cls-1" width="338.96" height="363.61"/></clipPath><clipPath id="clip-path-2"><rect class="cls-1" width="339" height="364"/></clipPath><clipPath id="clip-path-3"><rect class="cls-1" x="-2" y="-1" width="342" height="366"/></clipPath><clipPath id="clip-path-4"><path class="cls-2" d="M336.35,50.15c-2.83-2-5.3-3.61-7.52-6.39s-4.15-5.22-7.33-7.16c-4.59-2.79-11.94-7.43-14.27-12.55-1.32-2.89-1.74-6.41-2.2-9.45-.32-2.11-.32-5.87-1.73-7.55-2.71-3.24-11-5.14-13.75-5.61C281.29,0,272.88.06,264.51,0,247.59-.13,232.66,9.69,216,11.25c-3.62.34-7.22.86-10.83,1.31-2.89.36-6.09.08-8.77,1.32-4.25,2-6,6.6-7.39,10.87-1.58,4.72-1.59,9.89-1.14,14.76.72,7.78-2.35,15.29-4.7,22.53-1.46,4.5-.51,10.17-2.63,14.36-3.57,7-11.93,6.13-18.32,4.86a41,41,0,0,1-13.75-5.16c-2.67-1.65-4.58-4.09-7.35-5.73A115.48,115.48,0,0,0,114.6,59c1.26-3.44,9.76-.93,12.42-3.13.22-2-1.69-3.94-2.28-5.83a10.27,10.27,0,0,1,.43-7.51c.78-1.52,2.29-2.76,3.3-4.12,1.58-2.16,3.05-4.57,4.44-6.85A20.71,20.71,0,0,0,136,23.6c.3-2.08,0-4.23.38-6.32.76-3.91-.14-5.36-4.49-6-6.48-.94-14.07-.16-19,4.57-5.31,5.11-6.18,13.61-11.58,18.57-3.42,3.14-9.3.37-10.73-3.36a10.75,10.75,0,0,1-.44-5.89c.31-1.47,1.15-2.24.54-3.55-1.36-2.89-8.39-3.46-11.28-4C72,16.41,63.58,13,56.46,17.45c-3.31,2.07-5.36,4.75-3.33,8.28,1.49,2.58,4.51,4.07,5.48,6.95,1.35,4-2.26,4.92-5,6.38-.94.07-1.81.16-2.31.16-2.13,0-3.9-.45-5.57,1.1-2.26,2.1-2.7,6.11-3.46,8.92C41.22,53.29,40,56.2,40,60.45c.09,5.39,4.61,8.43,6.47,13.27a28.89,28.89,0,0,1,1.62,11.45c-.15,2.89-1.68,4.61-3.07,7-1.49,2.58-2.62,5.14-4,7.76a49.48,49.48,0,0,0-4.83,12.18c-1,4.63,1.28,10.33-1.15,14.58-2.26,4-8.3,5.82-12.6,6.41-3.48.48-8.29-1.31-10.55,2.21s.65,8.19-1.78,11.38C8.72,148.63,6.5,149.82,5,152c-1.67,2.44-4,5.16-4.82,8-1.29,4.64,3.41,8.32,6.84,10.62a29.33,29.33,0,0,0,12.75,4.6,94.44,94.44,0,0,0,11.45,1c6.42.06,12.16,4.22,17.82,7A77.67,77.67,0,0,1,63.83,193c4.16,3.46,9.37,5.67,13.82,8.81a61.27,61.27,0,0,1,5.89,5c1.73,1.57,3.35,1.34,5.52,1.92a43.88,43.88,0,0,1,10.17,4.48c7,4,13.92,9.73,16.71,17.54,2.67,7.44,2.11,14.65,2.11,22.51,0,3.49-1.15,9.7.17,12.86,2.1,5,5.89,7.24,11,8.39,3.15.7,9.06-.29,9.85,3.74a38.64,38.64,0,0,1,0,10.51c-.48,3.63-4.23,7.82-6.8,10.31-4.19,4.07-9.81,6-14.07,10a29.44,29.44,0,0,0-6.9,9.22c-2.3,4.66-3.3,7.7-3.27,13,0,4.5-.81,7.26,2.48,10.49,1.75,1.73,3.28,3.74,5.52,4.84s4.78,1.09,5.84,3.85c1.55,4-3.36,8.58,1.36,11.15a21.79,21.79,0,0,0,12.82,1.8c3.88-.72,6.66-6.61,10.1-8.71,4-2.42,9.39-1.42,13.89-1.42,4,0,8.1,0,12.15,0,7.67.13,12.34-4.48,17.12-10,4.44-5.15,6.22-11.42,8.73-17.7,1.56-3.9,2.29-8.17,5.29-11.31,5.5-5.75,12.55-10.33,19-14.83,10.55-7.33,20.57-14,29.69-23.16,5.22-5.24,9.73-12.06,16.71-15.08,5.31-2.29,11.05-4.12,16.49-6,2.3-.78,4.61-1,7-1.65,4.57-1.28,8.56-3.39,13.27-4.4,1.56-.34,5.17-.32,6.48-1.1,1.48-.89,2.15-4.68,2.14-6.46,0-6-5.19-8.16-9.12-11.65s-8.14-4.74-13.48-4.75a37.36,37.36,0,0,0-7.62,1,24,24,0,0,0-5.05,1.13c-3,1.26-5.06,3.62-7.94,5-4.57,2.12-9.86,3.6-14.62,5.25A64.51,64.51,0,0,1,241.78,241c-3.2.33-6.34,1-9.51,1.28-2,.21-4.2.36-5.72-1-1.72-1.51-3.13-6.48-3.62-8.65-.88-3.92.82-8.55,2.73-12,2.16-3.89,6-5.5,8.39-9,2.2-3.24,1.22-8.18-.65-11.26-3.28-5.39-6.59-8.44-3.9-14.85,3.51-8.34,5.24-18.78-2.07-25.87-1.54-1.49-4.16-3.25-6.31-3.51-2.82-.34-3.61,1.52-4.5,4-1.24,3.48-.87,7.11-1.69,10.63-.88,3.77-4.6,8.95-7.85,11.23-1.32.93-3.43,1.33-4.66,2.49-1.45,1.38-1.86,3.34-2.44,5.14-1.07,3.32-1.51,7.08-2.81,10.29s-4.23,5.48-6.73,7.65a66.88,66.88,0,0,1-6.31,5.24c-3.12,2.07-8.27,2.76-11.81,3.43A37.18,37.18,0,0,1,157.6,216c-4.9-1-8.52-3.43-12.71-5.95a25.65,25.65,0,0,1-11-14.32c-1.9-6.33,2.08-18.95,10.52-17.65,5.46.84,9.75,6.22,12.95,10.18a18.4,18.4,0,0,0,15.37,7.06c3.64,0,5.08-2,6.4-5.14.88-2.12.67-5.48,2.44-7.07,1-.86,4.45-1.73,5.11-2,2.65-1.18,5.46-2.52,7.38-4.78,4.11-4.87,3-11.91,7.08-16.91,2.8-3.44,8.64-5.72,10.37-9.89,1-2.39-.39-4.37,2.11-4.84,1.24-.24,3.08.79,4.38,1a48.75,48.75,0,0,0,7,.63c3.52.14,6.33.06,9.57-1.37,6.58-2.91,11.83-8.59,17-13.49,7.19-6.75,14.82-12.56,20-20.94,3.51-5.67,9-8.84,14.29-12.66a91.92,91.92,0,0,0,11.17-9.72c6.2-6.27,13.9-11.9,19.06-19,1.63-2.24,2.58-5.79,4.87-7.39,2.8-2,5.16-.85,8,.14,2.18.74,5.28,2.12,7.1.2,1.27-1.35,2.41-5.21,2.72-7,.4-2.31-.54-3.59-2.52-5"/></clipPath></defs><title>cloud-9</title><g class="cls-3"><g class="cls-4"><g class="cls-5"><g class="cls-6"><g class="cls-7"><g class="cls-4"><rect class="cls-8" x="-5" y="-5" width="348.96" height="373.61"/></g></g></g></g></g></g></svg>