<svg id="Layer_4" data-name="Layer 4" xmlns="http://www.w3.org/2000/svg" viewBox="0 0 170.44 152.63"><defs><style>.cls-1{fill:#4a58b0;}</style></defs><title>cloud-6</title><path class="cls-1" d="M166,30.58c-1.91-4.61-2.57-8.3,1.56-14.3,3.68-5.34,4-10.93-2.22-13.7C160.15.28,155.91,0,150.45,0c-12.15,0-17.57,12.74-28.31,15.93-13.42,4-27.64,3.14-41.2,6.33C68,25.29,55.57,31.91,44.8,39.57c-13.93,9.9-18.9-.34-33.46-.67-1,0-5.79-.64-6.63.28C3,41.06,6.24,44.09,7.34,45.46c1.72,2.16,3.39,4.44,5.26,6.48,5.84,6.4,8.3,10.73,8.18,20.13.06-5-13.23.24-14.83,1.34C-6.2,81.77,2.7,84.92,11,89.16c7,3.58,16.84,8.27,20.8,15.82,5.22,10-6.55,20.56-4.12,30.63,2.36,9.74,18.14,13.82,26.87,15.71,22.51,4.87,45.24-3.52,33.36-30-3.2-7.13-9.29-14.52-8.38-22.8,1-9.43,10.36-14,17.13-19.42,2.88-2.3,5.93-4.87,6.77-8.46,2.72-11.71-24.08-23.48-.09-23.61,20.7-.12,28.87,20.3,47.93,22.75,5.66.73,10.08-2.12,13.47-6.51,5.15-6.68,7.38-17.18,4.4-25.24C168,35.13,166.85,32.75,166,30.58Z"/></svg>