<svg id="Layer_4" data-name="Layer 4" xmlns="http://www.w3.org/2000/svg" viewBox="0 0 298.43 201.19"><defs><style>.cls-1{fill:#4a58b0;}</style></defs><title>cloud-7</title><path class="cls-1" d="M179.7,176.63c-7.9-8.09.9-24.95-9.05-31-6-3.64-13.12,1.61-19.94,2.77-15.16,2.59-26.65-15.21-41.79-17.94-9.19-1.66-18.47,2.49-27.79,2.19-15.7-.51-24.84-17.6-39.1-25C6,89.08,15.3,78.15,4,48.29c-4.39-11.66-6.71-26.12,1-35.72,5.89-7.31,15.87-8.39,25-8.48C55.7,3.83,63.87-3.75,88.76,2.4a183.8,183.8,0,0,0,45.79,5.34c5.19-.05,10.54-.3,15.41,1.57s9.21,6.49,9,11.88c-.07,2.39-1,4.66-1.36,7s0,5.13,1.87,6.52,5.26,0,4.89-2.41a7.2,7.2,0,0,1,4.22,7.57c1.92-3.28,6.69-2.79,10-1.07s6.54,4.31,10.21,3.94c5.19-.53,9.26-6.89,14.31-5.57,3.85,1,5.59,6,9.29,7.5,3.26,1.32,7.79-.15,9.85,2.79,1.53,2.18.46,5.22.79,7.9.68,5.58,7.31,8.86,7.88,14.46.4,3.94-2.29,8.43,0,11.58,2,2.68,6.31,2.29,8,5.43a2.93,2.93,0,0,1-.07,3c-1.91,2.78-6.87-.89-8.49,3.7a6.3,6.3,0,0,0,1.07,5.9l11.07,14.18c1.49,1.91,3.76,2.91,5.2.22,1.31-2.44-3.41-4.2-2.52-6.47,2.49-6.31,13.66,5,16.7,11.51,2.74,5.87,11.78,9.72,7,17.71-2.08,3.48-28.72-10.8-28.72-10.8-.86,4.06,3.68,6.87,7.36,8.47s8,5.12,6.41,8.93c-.61,1.46-2,2.4-3,3.62-4.54,5.55.64,15,7.53,16.29s12.17-9.55,18.93-7.62c6.35,1.81,8.15,10.5,13.68,14.19,3,2,6.16,4.27,7.07,8.19a5.84,5.84,0,0,1-1.44,5.49c-5.43,5.31-15.86-6-20.12,0-3.09,4.4,3.29,11.08-1.64,15.76a7.74,7.74,0,0,1-8.54,1.29c-4.57-2.07-6.9-7.09-8.38-11.94-1.53-5-2.55-10.39-6-14.39a2.54,2.54,0,0,0-3-.71c-2.52,1.21-.19,5,.13,7.9.49,4.39-4.51,7-8.61,8.15-6.21,1.77-12.6,3.35-19,2.87s-13-3.31-16.64-8.81c1.22,1.83-8,4.34-8.93,4.31a9.75,9.75,0,0,1-8.79-5.51m22.51-77.78c2.91.54-.63-12.1-.91-13-1.23-4-2.78-10.06-7.95-10-.93,0-1.68-.1-2.25.76s-.36,2.13-.35,3.16c0,4.07,2.9,7.39,5.38,10.28,2.23,2.6,4.3,5,5.49,8.28A.73.73,0,0,0,209.8,104.56Zm5.61,15.38a4.57,4.57,0,0,1,.09,1.59c-.07.61-.23,2.44.15,3,1,0,1.27-.9,2-1.39,2.3-1.51,4.74,3.77,5.37,5.45.27.7.61,1.42.84,2.14.65,2.05.83,4.16,2.14,5.92.59.79,2.66,3.45,3.07,1.3s-1.11-5.87-1.89-7.74-5.19-9.44-1.88-11a3.85,3.85,0,0,1,1.2-.24c1.19-.14,4.81-1.27,4.38-3.13s-6.34-.69-7.91-1.37c-2.72-1.17-2.46-3.79-3.34-6.2-.07-.19-1.68-2.81-1.87-2.27-.56,1.57,1.18,5.9-.54,6.71-2.05,1-4.14-2.76-6-3.14C211.27,113.82,214.54,116.14,215.41,119.93ZM130.08,82.47a6.81,6.81,0,0,0-3-3.18c-3.84-1.45-8.75-.41-12.8-.54-3.12-.1-4.39-3.78-7.41-4.06S101,77,98,77.09c-2,.05-4.63-.24-5.93,1.7-4.89,7.33,7.76,5.93,10.57,5.23A28.28,28.28,0,0,1,116,84c4.1,1,8.43,4.86,12.56,5C132,89.13,131.64,85.38,130.08,82.47Z"/></svg>