<svg id="Layer_4" data-name="Layer 4" xmlns="http://www.w3.org/2000/svg" viewBox="0 0 357.78 211.34"><defs><style>.cls-1{fill:#4a58b0;}</style></defs><title>cloud-4</title><path class="cls-1" d="M357.59,125.21c-1.47-5.81-9.59-6.44-15.3-4.64s-12.1,4.71-17.31,1.75c-6.87-3.91-6.71-15.62-14.13-18.35-9.18-3.37-15.59,10.58-25.14,12.64-6.9,1.49-13.29-3.56-19.94-5.91-5.22-1.84-10.87-2-16.22-3.41s-10.83-4.42-12.7-9.62c-2.56-7.09,2.48-15.15.28-22.37C234.43,66.5,222.6,63.5,218.93,55s2.06-20-4.07-27c-4.15-4.73-12-4.43-17.27-1S189,36.12,186,41.64s-6.07,11.29-11.09,15.07A21.16,21.16,0,0,1,141.29,43c-.68-4.38-.08-9.26-2.7-12.83-5.47-7.47-19.35-2.52-25.14-9.75-2.32-2.9-2.56-7-4.58-10.12-2.81-4.33-8.68-5.9-13.74-4.84S85.74,9.72,82,13.25c-2.41,2.26-5,4.85-8.27,5.12-8.61.7-10-9.84-14.29-14.93C53.54-3.56,44,1.56,38.31,6.09c-7.47,6-10.16,13.88-13.6,22.53-3.34,8.4-6.1,17-9,25.58C12,65,7.91,75.72,4.81,86.75c-4.66,16.54-7,34.35-2.05,50.81C7,151.68,16.21,163.67,25.25,175.32l16.87,21.76c3.18,4.1,6.91,8.53,12.06,9.16,9.2,1.13,15.5-10.21,24.68-11.49,8.67-1.21,15.54,6.65,21.54,13,1.38,1.46,2.91,2.95,4.86,3.42,4.34,1,7.93-3.12,11.25-6.1A27.53,27.53,0,0,1,147,201.3c4.45,2.36,8.25,6,13,7.59s11.25.19,12.7-4.63c.88-2.92-.33-6.26,1-9,2.3-4.82,9.51-3.6,14.23-1.08s10.71,5.53,14.91,2.21,2.63-10,4.05-15.15c2.62-9.55,15.66-12.42,24.78-8.55s15.54,12,22.77,18.79,17,12.64,26.56,10.2c5.12-1.3,9.54-4.85,14.76-5.63,6.62-1,15.94,1.25,18.05-5.1,1.71-5.13-4-11.73-.2-15.58,2.78-2.81,7.83-.73,11.33-2.56,3.93-2.06,3.88-7.53,4.35-11.95a28.24,28.24,0,0,1,14.42-21.48c3.17-1.71,6.68-2.81,9.59-4.93S358.47,128.7,357.59,125.21ZM189.72,86.33c-.51,1.6-2.11,2.57-3.66,3.24a31.52,31.52,0,0,1-16.25,1.83c-18.49-2.29-34.17-15.45-52.58-18.28-9.47-1.46-19.12-.09-28.7.27-5.12.19-10.44,0-15.05-2.17-2.6-1.25-5-3.36-5.62-6.19a5.15,5.15,0,0,1,4.38-6.16L99.06,47.68c4.59-1.43,9.43-.13,13.45,2.29,3.69,2.22,6.79,5.27,10.07,8.06,8.67,7.39,18.88,13.16,30,15.73,10.59,2.45,21.86,2,32,6a10.7,10.7,0,0,1,4,2.36A4.44,4.44,0,0,1,189.72,86.33Z"/></svg>