<svg id="Layer_6" data-name="Layer 6" xmlns="http://www.w3.org/2000/svg" viewBox="0 0 572.4 339.01"><defs><style>.cls-1{fill:#4a58b0;}</style></defs><title>cloud-8</title><path class="cls-1" d="M47,204.48c2.44-.14,4.83,0,7.27,0,6.6.11,12.82-2.44,19.44-2.68,6-.22,12.39.43,17.13-3.93,1.06-1,1.79-2.28,2.87-3.21a11.63,11.63,0,0,1,2.87-1.51c2.7-1.27,4.91-3.43,7.52-4.88a22.06,22.06,0,0,1,4.37-1.94,22.61,22.61,0,0,0,3.82-1c2.11-1.06,3.13-3.76,3.85-5.88.9-2.62,1.28-5.26,3.42-7.24,2.41-2.23,5.39-.81,8.19-.08s5.13,2.24,7.73,3.3a48.71,48.71,0,0,0,9.18,2.7,64.91,64.91,0,0,0,8.65,1.09c3.49.18,6.12-1,9.38-2a43.26,43.26,0,0,1,10.8-1.58c3.28-.13,6.81.39,10-.44,3.39-.89,6-3.49,9.44-4.38,1.38-.36,2.46-.13,4.88.65,3.2,1,6.46,1.82,9.65,2.85,4.54,1.48,12.64,3.41,13.27,9.14.31,2.78-.27,4.55,2.4,6.16,2.9,1.75,6.37,1.89,9.26,3.71,5.52,3.49,5.91,8.91,6.26,14.89.18,3.08-.38,7.35,1.7,9.92,4,4.91,8.34-3.19,9.1-6.46,1.52-6.53-1.72-13.06-.3-19.58.61-2.79,2.07-5.18,3.26-7.73,1.53-3.26,2.6-6.7,3.81-10.08,4.33-12,10.2-24.49,20-33a72.88,72.88,0,0,1,7.6-5.63c2.5-1.66,4.72-4.07,7.45-5.34,2.4-1.12,4.69-.29,7-1.89s2.53-3.81,1.88-6.53c-1.38-5.7-4.8-10.73-6-16.47-.38-1.86-1.07-4.86.57-6.3.89-.78,2-.57,2.17-1.77s-1.45-3-1.67-4.3a5.25,5.25,0,0,1,3-5.9c1.17-.53,2.38-.24,3.59-.51a5,5,0,0,0,3.18-2.38c3.26-4.62.55-11.73,5.49-15.16,1.94-1.35,4.15-3.15,6.47-3.7,3-.71,6.47-.64,9.54-.81,5.92-.34,12,.26,17.2,3.39,5.67,3.42,4.82,8.59,5.36,14.38.57,6.07,3.37,10.13,8.22,13.59a12.38,12.38,0,0,1,5.17,6.5c.88,2.39,1.87,5.44,4.88,5,2.22-.32,4.2-1.26,6.5-.64,1.48.4,2.81,1.31,4.3,1.75,1.67.51,3.39.79,5.08,1.22,2.9.74,5.32,2.5,7.71,4.23a48.73,48.73,0,0,0,8.33,4.76c4.79,2.23,8.52,8.8,9.56,13.8.52,2.53.65,4.63,3.09,6.09a16.39,16.39,0,0,0,9.75,2.52c2.42-.28,5-.88,6.9-2.49,2.55-2.2,4.34-5.69,6-8.59a22.09,22.09,0,0,0,3.22-8.6,34.05,34.05,0,0,0-.52-9.44c-.56-2.61-5.11-2.72-7.34-3.17-3.45-.7-6.86-1.64-10.33-2.25-3.2-.56-6.41-.56-9.63-.91A46,46,0,0,1,400,103.23c-5.63-2-9.82-4.83-11.45-10.78-.88-3.21-1.39-6.42-2-9.69-.46-2.56-1.26-5-3.72-6.26-2-1-4.3-1-6.44-1.09-1.47-.08-5,.12-6-1.3-1.13-1.65,1.08-4.83,2.05-6.12,1.71-2.27,4.25-3.51,6.39-5.3,2.41-2,3.64-4.74,5.59-7.12s4.91-3.57,7.53-4.77c2.8-1.29,4.85-2,4.74-5.52-.09-2.77-2.2-5.27-3.83-7.37a32.14,32.14,0,0,0-7.14-6.2c-1.79-1.28-5.06-2.8-6.22-4.74-1.4-2.34,1.27-4.67,3.29-5.57,2.9-1.28,5.77.43,8.29,1.82,4.84,2.66,10.44,5.17,13.24,10.17a75.44,75.44,0,0,1,3.85,7.43c1.25,3,1.13,6.06,2.88,8.86,1.43,2.31,3.28,4.35,4.61,6.72,1.49,2.65,1.43,4.84,1.52,7.75.2,6.85,8.21,3.25,12.51,3.23,4.54,0,11.16,4,15.24,1,4.41-3.32.95-8.84,1.63-13.08.36-2.26,2.76-2.41,4.68-2.79,1.65-.33,3.32-.54,4.94-1,2.06-.61,2.45-1.38,2.63-3.42.26-2.93.69-5.49,2.36-8s4.09-4.82,4.88-8c1.3-5.14-.94-10.76,4-14.32,1.67-1.2,3.61-2,5.25-3.24,2.09-1.59,3-3.71,3.82-6.17.72-2.3,1.29-4.8,3.14-6.49,2.11-1.93,5-2.12,7.73-1.69a26.87,26.87,0,0,1,7.54,2.29c2.15,1.09,2.43,3.26,3.08,5.43.9,3,1,5.65-1.34,8-2,2-4.35,3.22-6,5.54A25.5,25.5,0,0,0,489,29.25c-.86,3.07.47,4.42,1.29,7.18,1.48,5-3.52,8.58-8,8.55-1.9,0-3.52-1.15-5.39-1.24-2.36-.11-3.2,2.29-2.18,4.25,1.29,2.49,3.93,4,4.28,7,.31,2.71-1.67,5.37-3.66,7-2.7,2.23-4.85,1.54-8.05,1.35-2.62-.16-6.28.05-7.61,2.72-.91,1.82-.53,4.07-.45,6,.13,3.18,0,5.61,1.92,8.32A11.43,11.43,0,0,0,467.33,85c2.3.79,5,1.17,7.2,2.21s2.14,3.08.74,5c-1.87,2.53-4.91,2-7.63,1.42-2.32-.46-4.88-1.49-7.27-1.16-3.22.45-3.74,3.49-3.08,6.25,1.18,4.92,7.15,7.66,10.37,11.14,4.12,4.46,8.54,8.28,8.83,14.79.15,3.38-.32,6.5.3,9.88s1.52,7,1.22,10.58c-.5,6-6.33,9.51-10.63,13a21.19,21.19,0,0,0-5.35,6.83,56.68,56.68,0,0,1-5.23,7.34c-1.68,2.16-3.69,4.7-4.27,7.44-.47,2.25,1.21,5.32-.91,7.1-1.71,1.43-5.38.53-7.4.51-1.61,0-3.21,0-4.81.11a17.26,17.26,0,0,0-4.48,1.36c-2.57.89-5.16-.76-7.88,0-3.07.92-2.89,3.2-4.35,5.55-2.11,3.39-11.38,8.47-7.59,13.07,4,4.89,9.89,2,15.1,1.59,1.75-.15,4.58-.54,5.62,1.31,1.58,2.78-2.41,4.9-4.43,5.56-1.43.47-10.24,1.3-6.26,4.07,2.63,1.82,6.74,2.08,9.81,2.55a22.34,22.34,0,0,1,5.31,1.34,32.18,32.18,0,0,1,4.27,2.26c1.18.72,3,2.47,4.41,2.06,2-.6,3-5.34,3-7.1a79.42,79.42,0,0,0-.8-9.69c-.33-3-1.58-5.73-1.71-8.72-.07-1.57,0-2.43,1.73-2.17a10.06,10.06,0,0,1,3.82,2.17c1.35,1.15,2.05,4,4.1,4.23,1.89.17,2.85-2,3.53-3.43.57-1.2,1-2.86,1.93-3.84.66-.67,2-1.33,2.89-.58s.6,2.9.71,3.87a25.91,25.91,0,0,1-.3,8.49c-.75,3.55-2.78,6.42-3.82,9.83-1.57,5.11-1.64,11.83,1.32,16.45,1.67,2.62,3.42,2.24,6.26,1.87a9.91,9.91,0,0,0,3-.43c1.35-.69,2-2.64,2.58-3.91a17.56,17.56,0,0,1,5.11-6.56c2.16-1.72,5-3.09,6.53-5.43a8.48,8.48,0,0,0,.6-7.17,20.45,20.45,0,0,1-1.25-3.41,12.06,12.06,0,0,1,.83-5.6c.89-2.56,5.74-8,1-9-2.35-.5-4.65-.42-7-1.09a22.92,22.92,0,0,1-7.62-4.11c-1.92-1.41-4.5-2-6.25-3.58s-2.49-4.81-.3-6.27,5.36-.44,7.71-.9a24,24,0,0,0,3.64-1.48,9,9,0,0,1,3.52-.2c3.18.11,5.87-.05,8.91,1a64.65,64.65,0,0,0,7.27,2.45c2.49.56,4.81.28,5.76-2.37s1.1-4.44,3.91-5.94c2-1.07,5.08-1.88,5.9-4.28.91-2.64-1.45-5.5,1.5-7.46,2.3-1.53,4.23-.37,5.34,1.81,1.54,3,3.62,4.16,6.33,6.09,1.53,1.1,3.77,3.31,1.65,5.19-1.63,1.45-4.77.55-6.77,1.47-2.25,1-2.3,2.59-.61,4.2,1.91,1.82,4.16,2.76,5.09,5.39.72,2,1,3.1,2.76,4.37a29.58,29.58,0,0,1,4.57,3.56c4,4.39-3.61,4.54-6.35,4.44-6.49-.24-9.84,3.7-13.48,8.5-.8,1.05-1.59,2.11-2.47,3.1a26,26,0,0,0-2.72,2.76c-.65,1-.44,1.94-.46,3.09,0,1.41-1,4.12,0,5.4,1.37,1.78,3.72.06,5.32-.19,2.6-.41,5.62.63,7.22-2.28,1.28-2.33,1.21-5.1,2.64-7.5,1.23-2.08,2.46-4.31,5.11-4.09a10.05,10.05,0,0,1,6.18,2.62c.79.77,1.34,1.77,2.17,2.51a12,12,0,0,0,4.08,2c2.79,1,5.26,1.91,8.13.64,2.52-1.11,4.89-3.35,7.88-2.68,4.44,1-2.2,9.41,1.87,12.4,3.25,2.39,7.41-2.74,10.93-1.22,4.49,1.95-6.77,9.37-8.14,11-3.36,4-7.83,7.83-7.34,13.55.22,2.52,1,5.35-.33,7.71s-4.61,3.49-6.85,4.56-4.79,2-6.55,3.89c-1.35,1.46-2,3.38-2.89,5.12-2.23,4.31-5.28,6.42-8.77,1.94a12,12,0,0,1-2.7-5.79c-.38-2.79-.64-4.25-3.91-3.45-5.44,1.33-8.23,6-9.33,11.17-.91,4.27-1.65,10.56-5.83,13.09-2,1.18-4.35.2-6.52.12-3.82-.14-5.94.55-8.68,3.25-4.83,4.75-9.3,9.83-14.16,14.55-1.6,1.56-4.61,3.79-4,6.31s2.35,4.45.19,6.9c-3.44,3.9-11.3,4.49-16.06,4.24-2.34-.12-4.5-.84-6.81-1.13s-2.64.35-4.21,1.91a7.44,7.44,0,0,0-2.27,3.36,7.76,7.76,0,0,1-1.52,3.19c-1.85,2-5.27,3-7.75,3.95a51.85,51.85,0,0,1-19.82,3.5,173.35,173.35,0,0,1-20.91-1.52c-3.45-.48-6.84-1.72-10.31-2s-6.78.43-10.2,0-6.51-1-9.88-.88-7,.56-10.45.94c-14,1.54-27.78,3.75-41.94,4-3.16.06-6.69.15-9.76-.73a4,4,0,0,1-2.32-1.66c-.85-.92-.65-1.19-2.21-1.36-7-.79-13.49-.83-20-3.84-2.64-1.21-4.64-3.1-7.06-4.65-2.7-1.73-5.9-2.5-8.94-3.41-2.69-.81-5.41-1.61-8.08-2.51-1.92-.65-5.75-1.63-6.36-3.79-.44-1.56.46-3.92,1.25-5.25s3.32-3.76,1.37-5.26c-1.14-.88-3.91-.27-5.21-.19-2.95.19-6.9.17-9.58,1.57-2.08,1.09-2.69,3.43-4.39,4.89-2.44,2.1-6.13.69-9.07,1.53-6.67,1.9-3.87,8.47-4.68,13.65-.37,2.4-1.74,3.12-3.68,4.39a19.18,19.18,0,0,1-9.36,3.55,92.17,92.17,0,0,1-20.07-1c-2.94-.46-5.94-1-8.33-2.82-2.57-2-4-3.84-7.51-3.86-2.79,0-5.63.06-8.18-1.3-2.92-1.56-3.51-4.46-4.07-7.46s-2.27-3.57-4.8-4.76-2.89-3.07-3.18-5.76c-.2-1.85-.12-4.5-1.35-6s-4.63-2.57-6.53-2.91c-3.12-.55-6.69-.19-9.84-.11-3.39.08-6.77.38-10.16.49-1.73.06-3.62.44-5.33.05-3.09-.7-.44-1.91.62-3.32,3.89-5.15-8.41-4.6-10.48-4.48-5.65.35-12.8.6-17.24,4.61-2.25,2-2.84,4.69-4.09,7.32a16.56,16.56,0,0,1-5.59,6.31,8.16,8.16,0,0,1-8.45.93c-2.46-1.09-4.7-2.37-4.27-5.3.8-5.47,6.53-9,3.12-14.82-1-1.78-2.62-4.06-4.83-4.29-1.47-.15-3,.58-4.51.5-1.73-.09-3.17-.92-4.77-1.5-4.78-1.73-12.91.59-14.17,6.2-.52,2.3.68,4.6,1,6.85.39,3.2.43,7.08-1,10.05-2.6,5.58-8.51,8.67-12.29,13.3-3.64,4.45-3.39,11-9.27,13.53-4.51,1.91-11.88-.5-15.67-3.21a9.38,9.38,0,0,1-2.45-13C3.26,317.67,5,315.19,6.85,313s4.27-4.77,4.46-8a39.42,39.42,0,0,1,1.16-8.57c.79-2.86,2.19-6.35,1.79-9.35-.32-2.34-.23-5.57-2.05-7.29s-5-2.41-7.23-3.87-1.76-3.53-.89-5.87c1-2.78,3.13-3.84,5.86-4.63,5.11-1.49,11.85-2,17-.46,3.1.92,4.35,3.13,6.83,4.86a36.88,36.88,0,0,0,7.38,4.06c5,1.84,11.47.49,13.81-4.58.82-1.77.54-3.9,1.43-5.6,1.2-2.28,4.5-1.18,6.62-1.56,3-.54,2.6-2.93,2.15-5.5-.57-3.29-2.54-4.43-5.54-5.12-2.81-.65-4.25-2-6.57-3.58-2.51-1.74-4.45-3.22-4.81-6.41s.44-4.25,1.87-6.8c1.3-2.34,3-4.14,2.75-7-.16-1.79-.7-3.83-2.35-4.78-1.22-.71-4.24-1.45-5.55-.66-1.54.93.07,2.66-1.26,3.48-.68.42-2.22.24-3.06.52-1.34.45-2.56,1.16-3.95,1.52-3.07.8-6.32.42-9.42,0-1.63-.2-7.77-1.18-7.37-2.92.69-3,5.68-1.91,7.71-4.55,1.78-2.31,2.06-5.39,3.61-7.84a19.86,19.86,0,0,1,6-5.61,8.93,8.93,0,0,1,3.83-1.48C42.41,205.25,45.93,204.54,47,204.48Zm459.26,32.85a26.55,26.55,0,0,1-6.63-1.16c-2.66-.64-8.47-1.17-6.71,3.4,1.06,2.76,4.87,3.91,5.8,7,.43,1.42-1,3.42-.47,4.5s3.33,1,4.24,1.11c1.82.28,3.71-.26,5.31.81,1.43,1,2.25,2.6,4.23,2.36,1.6-.19,3.13-1.59,4.29-2.6a16.18,16.18,0,0,1,5-3.11c3.57-1.47,8.58-1.91,11.55-4.6a4.86,4.86,0,0,0-1.31-7.84c-2.07-.89-5-.59-7.18-.18a21.93,21.93,0,0,1-7.63.5,18.75,18.75,0,0,1-3.25-.48c-.69-.22-1.37-.89-2.05-1C509.62,235.6,507.22,237.33,506.29,237.33ZM163.8,307.83c.57,2.15,5.88,2.23,7.48,2,4.25-.55,4.82-3,6.34-6.36.87-1.94,2.6-2.86,4.39-3.82s3.31-2.32,5-3.44c1.16-.74,4.66-2.18,4.36-4s-2.29-.68-3.38-.31c-4.15,1.39-8.13.68-12.42.83-1.78.06-3.76.66-4,2.74-.19,1.88,1.7,2.93,1.7,4.9a7.67,7.67,0,0,1-1.17,4.67c-.53.69-1.4,1.1-2,1.78-.37.45-.25.83-.65,1C168.36,308.49,165.21,307.83,163.8,307.83Zm-96-35.91c1.6,3.13,3.45,3.72,6.63,4.52,1.26.32,2.45.93,3.72,1.2a24,24,0,0,0,5.08.14c3.49,0,5.69,1.33,9,2.14,6.73,1.68,14.1-.8,21-.6a60.61,60.61,0,0,1,10.33.82c3.26.7,5.92,1.7,9.32,1.69,2.88,0,4.85-.15,7-2.29a7.56,7.56,0,0,0,2-8.07c-.72-2.56-1.52-4.83-4.41-5.18a21.78,21.78,0,0,0-8.32,1c-3,.86-5.82,2.2-8.74,3.28-2.49.92-5.45.57-7.78,1.62a13.94,13.94,0,0,1-8.13,1.57c-3.56-.32-5.74-2.21-8.82-3.65-3.33-1.56-5.16-3.39-9.06-2.57a9,9,0,0,0-4.09,1.85c-1.17.95-2.14,2.14-3.67,2.49a5.82,5.82,0,0,1-4.15-.93,23.92,23.92,0,0,0-4.51-1.68C69.11,269,67,270.27,67.8,271.93Z"/></svg>