<?xml version="1.0" encoding="UTF-8"?>
<svg width="335px" height="76px" viewBox="0 0 335 76" version="1.1" xmlns="http://www.w3.org/2000/svg" xmlns:xlink="http://www.w3.org/1999/xlink">
    <!-- Generator: Sketch 49.1 (51147) - http://www.bohemiancoding.com/sketch -->
    <title>logo</title>
    <desc>Created with Sketch.</desc>
    <defs>
        <polygon id="path-1" points="0 0 71.0999986 0 71.0999986 75.5999985 0 75.5999985"></polygon>
    </defs>
    <g id="v04" stroke="none" stroke-width="1" fill="none" fill-rule="evenodd">
        <g id="Desktop-HD-Copy-2" transform="translate(-563.000000, -479.000000)">
            <g id="logo" transform="translate(563.000000, 479.000000)">
                <g id="Group">
                    <g id="Page-1" transform="translate(263.000000, 0.000000)">
                        <mask id="mask-2" fill="white">
                            <use xlink:href="#path-1"></use>
                        </mask>
                        <g id="Clip-2"></g>
                        <path d="M65.0286919,14.8143247 C65.0586868,14.4155652 65.1166632,14.0194534 65.2027098,13.6306667 C65.4816952,12.3700221 66.0251275,11.0634562 65.6228757,9.8361126 C65.322956,8.9208928 64.5502536,8.24831171 63.7923265,7.64877522 C62.2852074,6.45664488 60.7032638,5.36174064 59.130292,4.25677548 C57.5030154,3.11362592 55.8722153,1.95185483 54.0645251,1.1181814 C51.3546183,-0.131578581 48.0912118,-0.567522209 45.435521,1.04593108 C43.1898101,2.41027372 41.8049506,4.80894917 40.7219354,7.11575258 C40.6657948,7.23527744 40.6104241,7.35509648 40.5555864,7.4752097 C37.9831292,13.1086757 38.7485476,19.4875909 41.896327,24.7311523 C43.4277264,27.2822124 45.6299402,29.4510754 47.9765027,31.2703656 C50.2064907,32.9991958 52.6389815,34.4852108 54.6848545,36.4402352 C56.1453379,37.8358784 57.4861081,39.6282219 58.5836322,41.319103 C59.7689499,43.145277 60.4190078,45.3863609 60.4639558,47.5559004 C60.4844755,48.5468713 60.1263722,49.4058147 59.0302102,49.5692016 C57.5049401,49.796543 55.790847,48.5205717 54.6273815,47.6841624 C53.3318554,46.7527922 52.1475444,45.6818341 50.9376207,44.6461187 C46.939235,41.2233772 43.2082867,37.4710967 39.0096189,34.2836983 C33.8257674,30.3483797 27.9700058,27.125268 21.6884229,25.3043892 C18.945501,24.5092826 16.1184867,24.0380081 13.2854319,23.6976726 C11.6847748,23.5053973 10.007102,23.2063351 8.39389025,23.2241035 C6.66395587,23.2431075 4.98053879,23.7340625 3.33472641,24.217016 C2.53490121,24.4517118 1.60369646,24.4757462 0.84686497,24.8923623 C-0.254567645,25.4986943 -0.14995553,26.6318712 0.415476945,27.6151052 C0.910200751,28.4753724 1.56304193,29.1858437 1.87240717,30.1523389 C2.14558899,31.0057517 2.28913824,31.9788071 2.26645699,32.8747287 C2.22734218,34.4189029 1.68912129,35.9307174 1.55966639,37.4768626 C1.51984095,37.9524909 1.47983785,38.3970834 1.57912016,38.8717704 C1.72000452,39.5452046 1.9554632,40.3564028 2.28173575,40.9570277 C2.8269742,41.9607953 3.65214556,42.8260636 4.35908421,43.7116301 C5.00034788,44.5148561 5.49533818,45.2794857 5.90016603,46.2189164 C6.41754149,47.4194015 6.76158003,48.6676023 7.18070951,49.8992409 C7.31934351,50.3065315 7.53363105,50.6791972 7.66406308,51.0884294 C7.76071011,51.3917572 7.8184496,51.7032632 7.89445846,52.0122392 C8.08757485,52.7973143 8.31826632,53.5751526 8.57809403,54.3408413 C9.03485783,55.6870037 9.53805009,56.9938049 10.2540494,58.2280029 C11.3046416,60.0389384 12.4921801,61.8082476 13.7339641,63.4962753 C14.704787,64.8159616 15.8827911,65.9655831 17.0008645,67.1598609 C17.9009788,68.1213256 18.9279719,68.985123 20.0188041,69.7310134 C20.464553,70.0358415 20.9504234,70.2628005 21.4413868,70.4843466 C21.7309725,70.6149914 22.0176269,70.6950669 22.2967307,70.8525703 C22.9442125,71.2179698 23.5598931,71.6378513 24.2104247,72.0001913 C25.1859556,72.5435691 26.2006902,72.8252159 27.2658801,73.1262491 C28.578284,73.4971792 29.8884671,73.8145688 31.21612,74.1244568 C32.4554168,74.4137228 33.5449758,74.9954615 34.7414861,75.3884256 C35.0140165,75.4779148 35.2837636,75.5199824 35.5744745,75.5363387 C36.5645735,75.592115 37.5369954,75.6576287 38.5230083,75.509186 C39.4872282,75.3640382 40.2618553,74.8037746 41.1570839,74.455761 C45.0330323,72.9490946 49.1051469,73.7234322 53.1017265,73.1002143 C54.1492985,72.9368274 55.2683787,72.6511797 56.1026699,71.9677728 C56.629106,71.5365067 57.2017041,71.139071 57.7738284,70.7699354 C58.184756,70.5048214 58.5057283,70.1432757 58.9238215,69.8918704 C59.8383262,69.3419619 60.7493073,68.791465 61.5892244,68.1303275 C64.0372012,66.2034855 66.6631044,65.2059839 68.5171935,62.5393703 C73.0691974,55.9926849 70.9283355,46.2704271 67.2951002,39.8458848 C65.485663,36.646278 63.1579916,33.7366433 60.4522598,31.2639525 C57.7256826,28.7722577 54.8901406,26.6692908 51.9468478,24.4232353 C50.0125156,22.9471341 48.19233,21.1324331 47.0823105,18.9481846 C46.3752238,17.5568658 45.9617794,16.0292833 45.7603722,14.4876685 C45.5995307,13.2565888 45.4136688,11.8870098 45.6347962,10.6547829 C45.7955193,9.75909658 46.2547999,8.87397127 47.0407676,8.40702119 C47.9691594,7.85543586 49.1458014,7.98269763 50.1980223,8.23207303 C50.9832793,8.41819999 51.767204,8.66828142 52.4344356,9.11981653 C54.7152936,10.6633729 55.1014375,14.1282408 57.4796828,15.5191772 C58.0021807,15.8247702 58.5944695,16.0092497 59.0868837,16.3607346 C59.8669886,16.9176151 60.3025517,17.8186555 60.8302314,18.6161155 C62.1539167,20.6166199 64.2369206,22.107989 66.565806,22.7226757 C67.0997334,22.8636168 67.8385917,22.8567624 68.0104777,22.3351245 C68.1612814,21.8774116 67.7244747,21.4595894 67.366253,21.1350807 C65.6353711,19.5670781 64.8534007,17.1456626 65.0286919,14.8143247" id="Fill-1" fill="#EAEAEA" mask="url(#mask-2)"></path>
                    </g>
                    <path d="M16.2999997,13.9999997 L16.2999997,62.5999987 C16.2999997,68.4999986 15.4999997,70.8999986 23.8999995,70.8999986 C46.9999991,70.8999986 50.399999,60.5999988 51.699999,60.5999988 C52.3999989,60.5999988 52.4999989,61.5999988 52.4999989,61.7999988 C52.4999989,65.3999987 49.899999,68.8999986 47.499999,71.4999986 C44.2999991,75.0999985 42.0999992,74.8999985 37.6999992,74.8999985 C30.0999994,74.8999985 22.4999995,74.2999985 14.8999997,74.4999985 C10.8999998,74.5999985 6.69999986,74.8999985 2.69999995,74.8999985 C1.79999996,74.8999985 1.19999998,74.6999985 1.19999998,73.8999985 C1.39999997,72.6999985 2.39999995,72.8999985 5.59999989,71.2999986 C8.19999983,70.0999986 8.39999983,67.2999986 8.39999983,62.5999987 L8.39999983,11.8999998 C8.39999983,6.69999986 0,7.39999985 0,5.39999989 C0,4.29999991 0.699999986,4.09999992 1.99999996,4.09999992 C4.09999992,4.09999992 7.19999985,4.49999991 12.0999998,4.49999991 C17.7999996,4.49999991 20.1999996,4.09999992 21.6999996,4.09999992 C22.9999995,4.09999992 23.5999995,4.29999991 23.5999995,5.49999989 C23.5999995,7.79999984 16.2999997,5.29999989 16.2999997,13.9999997 Z M81.7199984,64.5999987 L81.7199984,52.9999989 C75.3199985,54.3999989 63.1199988,55.9999989 63.1199988,64.7999987 C63.1199988,70.4999986 66.0199987,72.6999985 71.3199986,72.6999985 C74.9199985,72.6999985 81.7199984,69.8999986 81.7199984,64.5999987 Z M81.7199984,50.599999 L81.7199984,42.8999991 C81.7199984,37.6999992 77.6199985,34.1999993 71.4199986,34.1999993 C66.6199987,34.1999993 62.7199988,34.6999993 62.7199988,40.1999992 C62.7199988,41.6999992 63.3199988,43.1999991 63.3199988,44.2999991 C63.3199988,45.3999991 63.0199988,46.1999991 61.1199988,46.1999991 C59.4199988,46.1999991 56.4199989,44.6999991 56.4199989,42.8999991 C56.5199989,38.2999992 62.1199988,31.2999994 73.2199986,31.5999994 C79.4199984,31.5999994 89.0199982,33.3999993 89.0199982,41.8999992 L89.0199982,62.5999987 C89.0199982,65.9999987 88.1199983,71.8999985 93.3199981,71.8999985 C93.7199981,71.8999985 94.6199981,71.6999986 95.0199981,71.6999986 C95.5199981,71.6999986 96.3199981,71.6999986 96.3199981,72.3999985 C96.3199981,74.4999985 91.9199982,74.8999985 90.5199982,74.8999985 C86.6199983,74.8999985 84.0199983,73.0999985 82.7199984,69.7999986 C78.5199984,73.3999985 73.0199986,75.5999985 67.4199987,75.5999985 C60.9199988,75.5999985 56.6199989,73.1999985 56.6199989,66.0999987 C56.6199989,60.7999988 58.3199989,54.4999989 81.7199984,50.599999 Z M110.939998,45.1999991 L110.939998,63.8999987 C110.939998,69.6999986 119.039998,73.3999985 123.139998,73.3999985 C132.439997,73.3999985 137.339997,65.6999987 137.339997,57.0999988 C137.339997,47.599999 131.439997,36.1999993 120.739998,36.1999993 C116.539998,36.1999993 111.439998,40.3999992 111.139998,41.3999992 C110.939998,42.1999991 110.939998,44.0999991 110.939998,45.1999991 Z M110.939998,1.59999997 L110.939998,38.1999992 C114.839998,34.4999993 119.739998,31.5999994 125.339998,31.5999994 C132.139997,31.5999994 142.339997,36.5999993 142.339997,51.699999 C142.339997,64.0999987 136.039997,75.5999985 121.539998,75.5999985 C114.239998,75.5999985 109.039998,70.0999986 107.939998,70.0999986 C107.139998,70.0999986 105.739998,75.5999985 104.239998,75.5999985 C103.539998,75.5999985 103.339998,74.9999985 103.339998,74.3999985 C103.339998,73.3999985 103.639998,71.3999986 103.639998,68.9999986 L103.639998,11.5999998 C103.639998,5.59999989 96.8399981,8.19999983 96.8399981,6.09999988 C96.8399981,5.49999989 97.2399981,5.0999999 97.7399981,4.9999999 C105.439998,3.19999994 107.439998,0 109.739998,0 C110.339998,0 110.939998,0.599999988 110.939998,1.59999997 Z M179.459996,64.9999987 L179.459996,38.8999992 C179.459996,35.0999993 174.159997,37.4999992 174.159997,35.0999993 C174.159997,34.2999993 175.459997,34.1999993 175.959997,34.1999993 C178.859996,34.1999993 180.259996,33.8999993 181.359996,33.5999993 C182.459996,33.3999993 183.359996,33.0999993 184.959996,33.0999993 C185.359996,33.0999993 186.759996,33.5999993 186.759996,35.4999993 L186.759996,70.0999986 C186.759996,72.6999985 193.059996,71.3999986 193.059996,73.5999985 C193.059996,74.3999985 190.959996,74.4999985 189.359996,74.4999985 C186.559996,74.4999985 185.159996,74.7999985 183.959996,74.9999985 C182.859996,75.2999985 182.059996,75.5999985 180.559996,75.5999985 C179.759996,75.5999985 179.659996,74.4999985 179.659996,74.0999985 L179.659996,68.5999986 L179.459996,68.5999986 C176.359997,73.2999985 171.459997,75.5999985 166.159997,75.5999985 C158.159997,75.5999985 151.559997,70.6999986 151.559997,62.1999987 L151.559997,38.8999992 C151.559997,35.0999993 146.259997,37.4999992 146.259997,35.0999993 C146.259997,34.2999993 147.559997,34.1999993 148.059997,34.1999993 C150.959997,34.1999993 152.359997,33.8999993 153.459997,33.5999993 C154.559997,33.3999993 155.459997,33.0999993 157.059997,33.0999993 C157.459997,33.0999993 158.859997,33.5999993 158.859997,35.4999993 L158.859997,60.7999988 C158.759997,71.3999986 167.259997,72.0999985 168.559997,72.0999985 C174.259997,72.0999985 179.259996,67.8999986 179.459996,64.9999987 Z M228.079996,62.5999987 L228.079996,45.4999991 C228.079996,38.0999992 222.079996,33.8999993 214.879996,33.8999993 C205.479996,33.8999993 201.279996,42.6999991 201.279996,50.999999 C201.279996,59.2999988 207.279996,71.2999986 216.779996,71.2999986 C225.079996,71.2999986 228.079996,66.1999987 228.079996,62.5999987 Z M228.079996,35.0999993 L228.079996,11.5999998 C228.079996,5.59999989 220.179996,8.19999983 220.179996,6.09999988 C220.179996,5.49999989 220.579996,5.0999999 221.079996,4.9999999 C228.779995,3.19999994 231.879995,0 234.179995,0 C234.779995,0 235.379995,0.599999988 235.379995,1.59999997 L235.379995,69.9999986 C235.379995,71.1999986 237.379995,71.9999985 240.679995,72.4999985 C241.379995,72.5999985 241.779995,72.5999985 241.779995,73.3999985 C241.779995,74.0999985 239.179995,74.7999985 235.479995,74.7999985 C232.879995,74.7999985 230.079995,75.5999985 229.179995,75.5999985 C228.379996,75.5999985 228.079996,74.7999985 228.079996,74.0999985 L228.079996,68.5999986 L227.879996,68.5999986 C224.479996,72.8999985 218.979996,75.5999985 213.179996,75.5999985 C202.179996,75.5999985 195.479996,65.4999987 195.479996,55.1999989 C195.479996,43.3999991 203.779996,31.5999994 216.379996,31.5999994 C220.579996,31.5999994 224.679996,32.7999993 228.079996,35.0999993 Z" id="Labud" fill="#FFFFFF"></path>
                </g>
            </g>
        </g>
    </g>
</svg>